<?xml version="1.0"?>
<svg xmlns="http://www.w3.org/2000/svg" viewBox="0 0 350 100">
  
  <path fill="#faf5ea" d="M54.153,39.106v34.175h-9.986v-3.113c-2.4,2.53-5.642,3.956-9.857,3.956-9.921,0-17.055-7.652-17.055-17.898s7.134-17.25,17.055-17.25c4.215,0,7.458,1.297,9.857,3.697v-3.567h9.986ZM43.777,56.226c0-4.993-3.178-8.43-7.911-8.43-4.539,0-7.847,3.567-7.847,8.43s3.242,8.365,7.847,8.365c4.734,0,7.911-3.437,7.911-8.365Z"></path>
  <path fill="#faf5ea" d="M90.453,51.557v21.724h-10.829v-19.584c0-3.696-2.529-5.836-5.772-5.836s-5.901,2.335-5.901,5.448v19.973h-10.83v-34.175h10.181v2.724c2.335-2.14,5.706-3.567,9.857-3.567,8.041,0,13.294,5.447,13.294,13.294Z"></path>
  <path fill="#faf5ea" d="M129.537,25.877v47.404h-9.986v-2.918c-2.464,2.399-5.772,3.761-9.857,3.761-9.921,0-17.055-7.652-17.055-17.898s6.874-17.898,16.796-17.898c3.696,0,6.809,1.102,9.273,3.178v-15.628h10.829ZM119.161,56.226c0-4.993-3.178-8.43-7.911-8.43-4.539,0-7.847,3.567-7.847,8.43s3.242,8.365,7.847,8.365c4.734,0,7.911-3.437,7.911-8.365Z"></path>
  <path fill="#7884ff" d="M165.208,38.717v34.175h-10.116v-2.854c-2.399,2.27-5.771,3.697-9.533,3.697-8.754,0-13.164-5.966-13.164-13.683v-21.335h10.829v19.908c0,3.178,2.075,5.512,5.577,5.512,3.437,0,5.642-2.27,5.642-5.512v-19.908h10.764Z"></path>
  <path fill="#7884ff" d="M166.439,64.815l8.949-3.437c.907,2.854,3.178,4.474,6.679,4.474,2.464,0,3.761-.973,3.761-2.529,0-5.382-17.833-2.788-17.833-14.526,0-6.615,5.448-10.635,14.072-10.635,7.004,0,12.062,2.788,13.423,7.587l-8.949,3.502c-.778-2.14-2.399-3.242-4.668-3.242-2.205,0-3.307.843-3.307,2.269,0,4.864,17.833,1.751,17.833,14.332,0,7.068-5.707,11.348-14.721,11.348-7.717,0-13.228-3.178-15.239-9.143Z"></path>
  <path fill="#faf5ea" d="M212.738,25.877h10.829v47.404h-10.829V25.877Z"></path>
  <path fill="#faf5ea" d="M263.094,39.106v34.175h-9.986v-3.113c-2.4,2.53-5.642,3.956-9.857,3.956-9.921,0-17.055-7.652-17.055-17.898s7.134-17.25,17.055-17.25c4.215,0,7.458,1.297,9.857,3.697v-3.567h9.986ZM252.718,56.226c0-4.993-3.178-8.43-7.911-8.43-4.539,0-7.847,3.567-7.847,8.43s3.242,8.365,7.847,8.365c4.734,0,7.911-3.437,7.911-8.365Z"></path>
  <path fill="#faf5ea" d="M302.786,56.226c0,10.246-7.068,17.898-16.99,17.898-4.086,0-7.393-1.362-9.857-3.761v2.918h-9.987V25.877h10.83v15.628c2.464-2.075,5.577-3.178,9.273-3.178,9.857,0,16.731,7.653,16.731,17.898ZM292.085,56.226c0-4.863-3.307-8.43-7.846-8.43-4.799,0-7.977,3.437-7.977,8.43,0,4.928,3.242,8.365,7.977,8.365,4.539,0,7.846-3.502,7.846-8.365Z"></path>
  <path fill="#faf5ea" d="M302.786,64.98l8.949-3.437c.907,2.854,3.178,4.474,6.679,4.474,2.464,0,3.761-.973,3.761-2.529,0-5.382-17.833-2.788-17.833-14.526,0-6.615,5.448-10.635,14.072-10.635,7.004,0,12.062,2.788,13.423,7.587l-8.949,3.502c-.778-2.14-2.399-3.242-4.668-3.242-2.205,0-3.307.843-3.307,2.269,0,4.864,17.833,1.751,17.833,14.332,0,7.068-5.707,11.348-14.721,11.348-7.717,0-13.228-3.178-15.239-9.143Z"></path>
</svg>