<?xml version="1.0"?>
<svg id="Layer_1" xmlns="http://www.w3.org/2000/svg" version="1.1" viewBox="0 0 1200 1200">
  
  <path d="M299.8,576.9l-199.9-115.5c-17.8-10.2-39.8,2.5-39.8,23.1v230.9c0,20.4,22.1,33.2,39.8,23.1l199.9-115.5c17.8-10.2,17.8-35.8,0-45.9h0ZM713.3,576.9l-199.9-115.5c-17.8-10.2-39.8,2.5-39.8,23.1v230.9c0,20.4,22.1,33.2,39.8,23.1l199.9-115.5c17.8-10.2,17.8-35.8,0-45.9h0ZM1126.7,576.9l-199.9-115.5c-17.8-10.2-39.8,2.5-39.8,23.1v230.9c0,20.4,22.1,33.2,39.8,23.1l199.9-115.5c17.8-10.2,17.8-35.8,0-45.9h0Z"></path>
</svg>