<?xml version="1.0"?>
<svg id="Layer_1" xmlns="http://www.w3.org/2000/svg" version="1.1" viewBox="0 0 85 85">
  
  <polygon points="81.2 40.9 48.5 40.9 76.8 24.5 75.2 21.7 46.9 38.1 63.3 9.8 60.5 8.2 44.1 36.5 44.1 3.8 40.9 3.8 40.9 36.5 24.5 8.2 21.7 9.8 38.1 38.1 9.8 21.7 8.2 24.5 36.5 40.9 3.8 40.9 3.8 44.1 36.5 44.1 8.2 60.5 9.8 63.3 38.1 46.9 21.7 75.2 24.5 76.8 40.9 48.5 40.9 81.2 44.1 81.2 44.1 48.5 60.5 76.8 63.3 75.2 46.9 46.9 75.2 63.3 76.8 60.5 48.5 44.1 81.2 44.1 81.2 40.9"></polygon>
</svg>